<?xml version="1.0" encoding="utf-8"?>
<!-- Generator: Adobe Illustrator 23.0.4, SVG Export Plug-In . SVG Version: 6.00 Build 0)  -->
<svg version="1.1" id="phone-frame" xmlns="http://www.w3.org/2000/svg" xmlns:xlink="http://www.w3.org/1999/xlink" x="0px"
	 y="0px" viewBox="0 0 281.1 475.8" style="enable-background:new 0 0 281.1 475.8;" xml:space="preserve">
<style type="text/css">
	.frame-color{fill:#473934;}
	.background-color{fill:#ffffff;}
	.text-color{fill:#000000;}
	.outline{fill:#E6E6E6;}
	.shadow-35{opacity:0.35;fill:#FFFFFF;}
</style>
<path id="FrameBody" class="frame-color" d="M0,405.9h281.1v34c0,19.9-16.1,36-36,36H36c-19.9,0-36-16.1-36-36V405.9z M245.1,0H36C16.1,0,0,16.1,0,36
	v33.9h281.1V36C281.1,16.1,265,0,245.1,0z"/>
<path id="ShadowDarker" class="shadow-35" d="M140.6,466.1c-13.1,0-23.7-10.6-23.7-23.7s10.6-23.7,23.7-23.7s23.7,10.6,23.7,23.7
	S153.6,466.1,140.6,466.1z M140.6,424.8c-9.7,0-17.7,7.9-17.7,17.7c0,9.7,7.9,17.7,17.7,17.7s17.7-7.9,17.7-17.7
	C158.2,432.7,150.3,424.8,140.6,424.8z M170.5,36.4c0-1.7-1.3-3-3-3h-53.9c-1.7,0-3,1.3-3,3s1.3,3,3,3h53.9
	C169.2,39.4,170.5,38.1,170.5,36.4z M99.7,36.4c0-2.2-1.8-4-4-4s-4,1.8-4,4s1.8,4,4,4S99.7,38.6,99.7,36.4z"/>
<rect id="WhiteBackground" x="1.1" y="69.9" class="background-color" width="278.9" height="336"/>

<svg xmlns="http://www.w3.org/2000/svg" xmlns:xlink="http://www.w3.org/1999/xlink" version="1.1" width="267.7" height="267.7" viewBox="0 0 2000 2000" x="6.7" y="74.3" shape-rendering="crispEdges"><defs/><rect x="0" y="0" width="2000" height="2000" fill="#ffffff"/><rect x="686" y="173" width="57" height="57" fill="#5f4e24"/><rect x="971" y="173" width="57" height="57" fill="#5f4e24"/><rect x="1199" y="173" width="57" height="57" fill="#5f4e24"/><rect x="1313" y="173" width="57" height="57" fill="#5f4e24"/><rect x="629" y="230" width="57" height="57" fill="#5f4e24"/><rect x="686" y="230" width="57" height="57" fill="#5f4e24"/><rect x="800" y="230" width="57" height="57" fill="#5f4e24"/><rect x="857" y="230" width="57" height="57" fill="#5f4e24"/><rect x="914" y="230" width="57" height="57" fill="#5f4e24"/><rect x="1028" y="230" width="57" height="57" fill="#5f4e24"/><rect x="1085" y="230" width="57" height="57" fill="#5f4e24"/><rect x="1142" y="230" width="57" height="57" fill="#5f4e24"/><rect x="1313" y="230" width="57" height="57" fill="#5f4e24"/><rect x="686" y="287" width="57" height="57" fill="#5f4e24"/><rect x="743" y="287" width="57" height="57" fill="#5f4e24"/><rect x="857" y="287" width="57" height="57" fill="#5f4e24"/><rect x="914" y="287" width="57" height="57" fill="#5f4e24"/><rect x="1085" y="287" width="57" height="57" fill="#5f4e24"/><rect x="1142" y="287" width="57" height="57" fill="#5f4e24"/><rect x="1199" y="287" width="57" height="57" fill="#5f4e24"/><rect x="1313" y="287" width="57" height="57" fill="#5f4e24"/><rect x="800" y="344" width="57" height="57" fill="#5f4e24"/><rect x="857" y="344" width="57" height="57" fill="#5f4e24"/><rect x="914" y="344" width="57" height="57" fill="#5f4e24"/><rect x="971" y="344" width="57" height="57" fill="#5f4e24"/><rect x="1085" y="344" width="57" height="57" fill="#5f4e24"/><rect x="1313" y="344" width="57" height="57" fill="#5f4e24"/><rect x="743" y="401" width="57" height="57" fill="#5f4e24"/><rect x="857" y="401" width="57" height="57" fill="#5f4e24"/><rect x="971" y="401" width="57" height="57" fill="#5f4e24"/><rect x="1028" y="401" width="57" height="57" fill="#5f4e24"/><rect x="1199" y="401" width="57" height="57" fill="#5f4e24"/><rect x="1256" y="401" width="57" height="57" fill="#5f4e24"/><rect x="1313" y="401" width="57" height="57" fill="#5f4e24"/><rect x="629" y="458" width="57" height="57" fill="#5f4e24"/><rect x="686" y="458" width="57" height="57" fill="#5f4e24"/><rect x="857" y="458" width="57" height="57" fill="#5f4e24"/><rect x="971" y="458" width="57" height="57" fill="#5f4e24"/><rect x="1199" y="458" width="57" height="57" fill="#5f4e24"/><rect x="1256" y="458" width="57" height="57" fill="#5f4e24"/><rect x="629" y="515" width="57" height="57" fill="#5f4e24"/><rect x="743" y="515" width="57" height="57" fill="#5f4e24"/><rect x="857" y="515" width="57" height="57" fill="#5f4e24"/><rect x="971" y="515" width="57" height="57" fill="#5f4e24"/><rect x="1085" y="515" width="57" height="57" fill="#5f4e24"/><rect x="1199" y="515" width="57" height="57" fill="#5f4e24"/><rect x="1313" y="515" width="57" height="57" fill="#5f4e24"/><rect x="629" y="572" width="57" height="57" fill="#5f4e24"/><rect x="800" y="572" width="57" height="57" fill="#5f4e24"/><rect x="857" y="572" width="57" height="57" fill="#5f4e24"/><rect x="971" y="572" width="57" height="57" fill="#5f4e24"/><rect x="1028" y="572" width="57" height="57" fill="#5f4e24"/><rect x="1142" y="572" width="57" height="57" fill="#5f4e24"/><rect x="1256" y="572" width="57" height="57" fill="#5f4e24"/><rect x="1313" y="572" width="57" height="57" fill="#5f4e24"/><rect x="401" y="629" width="57" height="57" fill="#5f4e24"/><rect x="458" y="629" width="57" height="57" fill="#5f4e24"/><rect x="515" y="629" width="57" height="57" fill="#5f4e24"/><rect x="572" y="629" width="57" height="57" fill="#5f4e24"/><rect x="800" y="629" width="57" height="57" fill="#5f4e24"/><rect x="857" y="629" width="57" height="57" fill="#5f4e24"/><rect x="1028" y="629" width="57" height="57" fill="#5f4e24"/><rect x="1199" y="629" width="57" height="57" fill="#5f4e24"/><rect x="1256" y="629" width="57" height="57" fill="#5f4e24"/><rect x="1427" y="629" width="57" height="57" fill="#5f4e24"/><rect x="1484" y="629" width="57" height="57" fill="#5f4e24"/><rect x="1712" y="629" width="57" height="57" fill="#5f4e24"/><rect x="173" y="686" width="57" height="57" fill="#5f4e24"/><rect x="401" y="686" width="57" height="57" fill="#5f4e24"/><rect x="572" y="686" width="57" height="57" fill="#5f4e24"/><rect x="686" y="686" width="57" height="57" fill="#5f4e24"/><rect x="743" y="686" width="57" height="57" fill="#5f4e24"/><rect x="857" y="686" width="57" height="57" fill="#5f4e24"/><rect x="971" y="686" width="57" height="57" fill="#5f4e24"/><rect x="1142" y="686" width="57" height="57" fill="#5f4e24"/><rect x="1199" y="686" width="57" height="57" fill="#5f4e24"/><rect x="1256" y="686" width="57" height="57" fill="#5f4e24"/><rect x="1427" y="686" width="57" height="57" fill="#5f4e24"/><rect x="1541" y="686" width="57" height="57" fill="#5f4e24"/><rect x="1598" y="686" width="57" height="57" fill="#5f4e24"/><rect x="1655" y="686" width="57" height="57" fill="#5f4e24"/><rect x="1769" y="686" width="57" height="57" fill="#5f4e24"/><rect x="173" y="743" width="57" height="57" fill="#5f4e24"/><rect x="230" y="743" width="57" height="57" fill="#5f4e24"/><rect x="287" y="743" width="57" height="57" fill="#5f4e24"/><rect x="344" y="743" width="57" height="57" fill="#5f4e24"/><rect x="515" y="743" width="57" height="57" fill="#5f4e24"/><rect x="572" y="743" width="57" height="57" fill="#5f4e24"/><rect x="629" y="743" width="57" height="57" fill="#5f4e24"/><rect x="1427" y="743" width="57" height="57" fill="#5f4e24"/><rect x="1484" y="743" width="57" height="57" fill="#5f4e24"/><rect x="1541" y="743" width="57" height="57" fill="#5f4e24"/><rect x="1655" y="743" width="57" height="57" fill="#5f4e24"/><rect x="1769" y="743" width="57" height="57" fill="#5f4e24"/><rect x="173" y="800" width="57" height="57" fill="#5f4e24"/><rect x="287" y="800" width="57" height="57" fill="#5f4e24"/><rect x="344" y="800" width="57" height="57" fill="#5f4e24"/><rect x="572" y="800" width="57" height="57" fill="#5f4e24"/><rect x="629" y="800" width="57" height="57" fill="#5f4e24"/><rect x="686" y="800" width="57" height="57" fill="#5f4e24"/><rect x="1313" y="800" width="57" height="57" fill="#5f4e24"/><rect x="1598" y="800" width="57" height="57" fill="#5f4e24"/><rect x="1655" y="800" width="57" height="57" fill="#5f4e24"/><rect x="1769" y="800" width="57" height="57" fill="#5f4e24"/><rect x="173" y="857" width="57" height="57" fill="#5f4e24"/><rect x="287" y="857" width="57" height="57" fill="#5f4e24"/><rect x="344" y="857" width="57" height="57" fill="#5f4e24"/><rect x="458" y="857" width="57" height="57" fill="#5f4e24"/><rect x="515" y="857" width="57" height="57" fill="#5f4e24"/><rect x="629" y="857" width="57" height="57" fill="#5f4e24"/><rect x="686" y="857" width="57" height="57" fill="#5f4e24"/><rect x="1256" y="857" width="57" height="57" fill="#5f4e24"/><rect x="1541" y="857" width="57" height="57" fill="#5f4e24"/><rect x="1598" y="857" width="57" height="57" fill="#5f4e24"/><rect x="173" y="914" width="57" height="57" fill="#5f4e24"/><rect x="230" y="914" width="57" height="57" fill="#5f4e24"/><rect x="287" y="914" width="57" height="57" fill="#5f4e24"/><rect x="344" y="914" width="57" height="57" fill="#5f4e24"/><rect x="401" y="914" width="57" height="57" fill="#5f4e24"/><rect x="1370" y="914" width="57" height="57" fill="#5f4e24"/><rect x="1427" y="914" width="57" height="57" fill="#5f4e24"/><rect x="1541" y="914" width="57" height="57" fill="#5f4e24"/><rect x="1655" y="914" width="57" height="57" fill="#5f4e24"/><rect x="1712" y="914" width="57" height="57" fill="#5f4e24"/><rect x="1769" y="914" width="57" height="57" fill="#5f4e24"/><rect x="173" y="971" width="57" height="57" fill="#5f4e24"/><rect x="344" y="971" width="57" height="57" fill="#5f4e24"/><rect x="458" y="971" width="57" height="57" fill="#5f4e24"/><rect x="515" y="971" width="57" height="57" fill="#5f4e24"/><rect x="572" y="971" width="57" height="57" fill="#5f4e24"/><rect x="629" y="971" width="57" height="57" fill="#5f4e24"/><rect x="686" y="971" width="57" height="57" fill="#5f4e24"/><rect x="1256" y="971" width="57" height="57" fill="#5f4e24"/><rect x="1427" y="971" width="57" height="57" fill="#5f4e24"/><rect x="1541" y="971" width="57" height="57" fill="#5f4e24"/><rect x="1655" y="971" width="57" height="57" fill="#5f4e24"/><rect x="173" y="1028" width="57" height="57" fill="#5f4e24"/><rect x="230" y="1028" width="57" height="57" fill="#5f4e24"/><rect x="287" y="1028" width="57" height="57" fill="#5f4e24"/><rect x="572" y="1028" width="57" height="57" fill="#5f4e24"/><rect x="686" y="1028" width="57" height="57" fill="#5f4e24"/><rect x="1256" y="1028" width="57" height="57" fill="#5f4e24"/><rect x="1370" y="1028" width="57" height="57" fill="#5f4e24"/><rect x="1655" y="1028" width="57" height="57" fill="#5f4e24"/><rect x="1712" y="1028" width="57" height="57" fill="#5f4e24"/><rect x="173" y="1085" width="57" height="57" fill="#5f4e24"/><rect x="230" y="1085" width="57" height="57" fill="#5f4e24"/><rect x="287" y="1085" width="57" height="57" fill="#5f4e24"/><rect x="515" y="1085" width="57" height="57" fill="#5f4e24"/><rect x="629" y="1085" width="57" height="57" fill="#5f4e24"/><rect x="686" y="1085" width="57" height="57" fill="#5f4e24"/><rect x="1256" y="1085" width="57" height="57" fill="#5f4e24"/><rect x="1370" y="1085" width="57" height="57" fill="#5f4e24"/><rect x="1484" y="1085" width="57" height="57" fill="#5f4e24"/><rect x="1598" y="1085" width="57" height="57" fill="#5f4e24"/><rect x="1655" y="1085" width="57" height="57" fill="#5f4e24"/><rect x="1712" y="1085" width="57" height="57" fill="#5f4e24"/><rect x="173" y="1142" width="57" height="57" fill="#5f4e24"/><rect x="230" y="1142" width="57" height="57" fill="#5f4e24"/><rect x="572" y="1142" width="57" height="57" fill="#5f4e24"/><rect x="1313" y="1142" width="57" height="57" fill="#5f4e24"/><rect x="1484" y="1142" width="57" height="57" fill="#5f4e24"/><rect x="1655" y="1142" width="57" height="57" fill="#5f4e24"/><rect x="458" y="1199" width="57" height="57" fill="#5f4e24"/><rect x="515" y="1199" width="57" height="57" fill="#5f4e24"/><rect x="629" y="1199" width="57" height="57" fill="#5f4e24"/><rect x="686" y="1199" width="57" height="57" fill="#5f4e24"/><rect x="1313" y="1199" width="57" height="57" fill="#5f4e24"/><rect x="1370" y="1199" width="57" height="57" fill="#5f4e24"/><rect x="1427" y="1199" width="57" height="57" fill="#5f4e24"/><rect x="1484" y="1199" width="57" height="57" fill="#5f4e24"/><rect x="1541" y="1199" width="57" height="57" fill="#5f4e24"/><rect x="1655" y="1199" width="57" height="57" fill="#5f4e24"/><rect x="1769" y="1199" width="57" height="57" fill="#5f4e24"/><rect x="344" y="1256" width="57" height="57" fill="#5f4e24"/><rect x="401" y="1256" width="57" height="57" fill="#5f4e24"/><rect x="572" y="1256" width="57" height="57" fill="#5f4e24"/><rect x="629" y="1256" width="57" height="57" fill="#5f4e24"/><rect x="743" y="1256" width="57" height="57" fill="#5f4e24"/><rect x="800" y="1256" width="57" height="57" fill="#5f4e24"/><rect x="857" y="1256" width="57" height="57" fill="#5f4e24"/><rect x="914" y="1256" width="57" height="57" fill="#5f4e24"/><rect x="1199" y="1256" width="57" height="57" fill="#5f4e24"/><rect x="1256" y="1256" width="57" height="57" fill="#5f4e24"/><rect x="1313" y="1256" width="57" height="57" fill="#5f4e24"/><rect x="1484" y="1256" width="57" height="57" fill="#5f4e24"/><rect x="1598" y="1256" width="57" height="57" fill="#5f4e24"/><rect x="1712" y="1256" width="57" height="57" fill="#5f4e24"/><rect x="173" y="1313" width="57" height="57" fill="#5f4e24"/><rect x="230" y="1313" width="57" height="57" fill="#5f4e24"/><rect x="287" y="1313" width="57" height="57" fill="#5f4e24"/><rect x="515" y="1313" width="57" height="57" fill="#5f4e24"/><rect x="629" y="1313" width="57" height="57" fill="#5f4e24"/><rect x="686" y="1313" width="57" height="57" fill="#5f4e24"/><rect x="800" y="1313" width="57" height="57" fill="#5f4e24"/><rect x="857" y="1313" width="57" height="57" fill="#5f4e24"/><rect x="971" y="1313" width="57" height="57" fill="#5f4e24"/><rect x="1199" y="1313" width="57" height="57" fill="#5f4e24"/><rect x="1256" y="1313" width="57" height="57" fill="#5f4e24"/><rect x="1313" y="1313" width="57" height="57" fill="#5f4e24"/><rect x="1370" y="1313" width="57" height="57" fill="#5f4e24"/><rect x="1427" y="1313" width="57" height="57" fill="#5f4e24"/><rect x="1484" y="1313" width="57" height="57" fill="#5f4e24"/><rect x="1541" y="1313" width="57" height="57" fill="#5f4e24"/><rect x="1598" y="1313" width="57" height="57" fill="#5f4e24"/><rect x="1655" y="1313" width="57" height="57" fill="#5f4e24"/><rect x="1769" y="1313" width="57" height="57" fill="#5f4e24"/><rect x="629" y="1370" width="57" height="57" fill="#5f4e24"/><rect x="857" y="1370" width="57" height="57" fill="#5f4e24"/><rect x="914" y="1370" width="57" height="57" fill="#5f4e24"/><rect x="1085" y="1370" width="57" height="57" fill="#5f4e24"/><rect x="1142" y="1370" width="57" height="57" fill="#5f4e24"/><rect x="1199" y="1370" width="57" height="57" fill="#5f4e24"/><rect x="1313" y="1370" width="57" height="57" fill="#5f4e24"/><rect x="1541" y="1370" width="57" height="57" fill="#5f4e24"/><rect x="1655" y="1370" width="57" height="57" fill="#5f4e24"/><rect x="1712" y="1370" width="57" height="57" fill="#5f4e24"/><rect x="1769" y="1370" width="57" height="57" fill="#5f4e24"/><rect x="629" y="1427" width="57" height="57" fill="#5f4e24"/><rect x="686" y="1427" width="57" height="57" fill="#5f4e24"/><rect x="800" y="1427" width="57" height="57" fill="#5f4e24"/><rect x="857" y="1427" width="57" height="57" fill="#5f4e24"/><rect x="914" y="1427" width="57" height="57" fill="#5f4e24"/><rect x="971" y="1427" width="57" height="57" fill="#5f4e24"/><rect x="1085" y="1427" width="57" height="57" fill="#5f4e24"/><rect x="1142" y="1427" width="57" height="57" fill="#5f4e24"/><rect x="1256" y="1427" width="57" height="57" fill="#5f4e24"/><rect x="1313" y="1427" width="57" height="57" fill="#5f4e24"/><rect x="1427" y="1427" width="57" height="57" fill="#5f4e24"/><rect x="1541" y="1427" width="57" height="57" fill="#5f4e24"/><rect x="1598" y="1427" width="57" height="57" fill="#5f4e24"/><rect x="1655" y="1427" width="57" height="57" fill="#5f4e24"/><rect x="1712" y="1427" width="57" height="57" fill="#5f4e24"/><rect x="1769" y="1427" width="57" height="57" fill="#5f4e24"/><rect x="629" y="1484" width="57" height="57" fill="#5f4e24"/><rect x="800" y="1484" width="57" height="57" fill="#5f4e24"/><rect x="857" y="1484" width="57" height="57" fill="#5f4e24"/><rect x="1085" y="1484" width="57" height="57" fill="#5f4e24"/><rect x="1142" y="1484" width="57" height="57" fill="#5f4e24"/><rect x="1256" y="1484" width="57" height="57" fill="#5f4e24"/><rect x="1313" y="1484" width="57" height="57" fill="#5f4e24"/><rect x="1541" y="1484" width="57" height="57" fill="#5f4e24"/><rect x="1598" y="1484" width="57" height="57" fill="#5f4e24"/><rect x="1712" y="1484" width="57" height="57" fill="#5f4e24"/><rect x="629" y="1541" width="57" height="57" fill="#5f4e24"/><rect x="800" y="1541" width="57" height="57" fill="#5f4e24"/><rect x="857" y="1541" width="57" height="57" fill="#5f4e24"/><rect x="914" y="1541" width="57" height="57" fill="#5f4e24"/><rect x="971" y="1541" width="57" height="57" fill="#5f4e24"/><rect x="1085" y="1541" width="57" height="57" fill="#5f4e24"/><rect x="1142" y="1541" width="57" height="57" fill="#5f4e24"/><rect x="1313" y="1541" width="57" height="57" fill="#5f4e24"/><rect x="1370" y="1541" width="57" height="57" fill="#5f4e24"/><rect x="1427" y="1541" width="57" height="57" fill="#5f4e24"/><rect x="1484" y="1541" width="57" height="57" fill="#5f4e24"/><rect x="1541" y="1541" width="57" height="57" fill="#5f4e24"/><rect x="1598" y="1541" width="57" height="57" fill="#5f4e24"/><rect x="1655" y="1541" width="57" height="57" fill="#5f4e24"/><rect x="1712" y="1541" width="57" height="57" fill="#5f4e24"/><rect x="743" y="1598" width="57" height="57" fill="#5f4e24"/><rect x="800" y="1598" width="57" height="57" fill="#5f4e24"/><rect x="857" y="1598" width="57" height="57" fill="#5f4e24"/><rect x="971" y="1598" width="57" height="57" fill="#5f4e24"/><rect x="1028" y="1598" width="57" height="57" fill="#5f4e24"/><rect x="1142" y="1598" width="57" height="57" fill="#5f4e24"/><rect x="1256" y="1598" width="57" height="57" fill="#5f4e24"/><rect x="1427" y="1598" width="57" height="57" fill="#5f4e24"/><rect x="1541" y="1598" width="57" height="57" fill="#5f4e24"/><rect x="1655" y="1598" width="57" height="57" fill="#5f4e24"/><rect x="1712" y="1598" width="57" height="57" fill="#5f4e24"/><rect x="686" y="1655" width="57" height="57" fill="#5f4e24"/><rect x="743" y="1655" width="57" height="57" fill="#5f4e24"/><rect x="857" y="1655" width="57" height="57" fill="#5f4e24"/><rect x="914" y="1655" width="57" height="57" fill="#5f4e24"/><rect x="971" y="1655" width="57" height="57" fill="#5f4e24"/><rect x="1028" y="1655" width="57" height="57" fill="#5f4e24"/><rect x="1370" y="1655" width="57" height="57" fill="#5f4e24"/><rect x="1655" y="1655" width="57" height="57" fill="#5f4e24"/><rect x="1712" y="1655" width="57" height="57" fill="#5f4e24"/><rect x="1769" y="1655" width="57" height="57" fill="#5f4e24"/><rect x="686" y="1712" width="57" height="57" fill="#5f4e24"/><rect x="743" y="1712" width="57" height="57" fill="#5f4e24"/><rect x="971" y="1712" width="57" height="57" fill="#5f4e24"/><rect x="1028" y="1712" width="57" height="57" fill="#5f4e24"/><rect x="1256" y="1712" width="57" height="57" fill="#5f4e24"/><rect x="1427" y="1712" width="57" height="57" fill="#5f4e24"/><rect x="1541" y="1712" width="57" height="57" fill="#5f4e24"/><rect x="1598" y="1712" width="57" height="57" fill="#5f4e24"/><rect x="686" y="1769" width="57" height="57" fill="#5f4e24"/><rect x="743" y="1769" width="57" height="57" fill="#5f4e24"/><rect x="914" y="1769" width="57" height="57" fill="#5f4e24"/><rect x="1028" y="1769" width="57" height="57" fill="#5f4e24"/><rect x="1142" y="1769" width="57" height="57" fill="#5f4e24"/><rect x="1199" y="1769" width="57" height="57" fill="#5f4e24"/><rect x="1313" y="1769" width="57" height="57" fill="#5f4e24"/><rect x="1484" y="1769" width="57" height="57" fill="#5f4e24"/><rect x="1541" y="1769" width="57" height="57" fill="#5f4e24"/><rect x="1655" y="1769" width="57" height="57" fill="#5f4e24"/><rect x="1712" y="1769" width="57" height="57" fill="#5f4e24"/><svg version="1.1" id="Ebene_1" x="173" y="173" viewBox="0 0 700 700" style="enable-background:new 0 0 700 700;" xml:space="preserve" width="399" height="399" shape-rendering="auto">

<path fill="#000000" d="M21.2-0.1C9.5-0.1-0.1,9.5-0.1,21.2v78.8v100v100v100v100v100v78.8c0,11.7,9.5,21.3,21.3,21.3h657.6  c11.7,0,21.3-9.5,21.3-21.3V600V500V400V300V200v-100V21.2c0-11.7-9.5-21.3-21.3-21.3H21.2z M600,200v100v100v100v87.8  c0,6.8-5.5,12.2-12.2,12.2H112.2c-6.8,0-12.2-5.5-12.2-12.2V500V400V300V200v-87.8c0-6.8,5.5-12.2,12.2-12.2h475.6  c6.8,0,12.2,5.5,12.2,12.2V200z"/>
</svg>
<svg version="1.1" id="Ebene_1" x="173" y="173" viewBox="0 0 700 700" style="enable-background:new 0 0 700 700;" xml:space="preserve" width="399" height="399" shape-rendering="auto">

<path fill="#000000" d="M500,400V300v-78.8c0-11.7-9.5-21.3-21.3-21.3H221.2c-11.7,0-21.3,9.5-21.3,21.3V300v100v78.8    c0,11.7,9.5,21.3,21.3,21.3h257.5c11.7,0,21.3-9.5,21.3-21.3V400z"/>
</svg>
<svg version="1.1" id="Ebene_1" x="1427" y="173" viewBox="0 0 700 700" style="enable-background:new 0 0 700 700;" xml:space="preserve" width="399" height="399" shape-rendering="auto">

<path fill="#000000" d="M21.2-0.1C9.5-0.1-0.1,9.5-0.1,21.2v78.8v100v100v100v100v100v78.8c0,11.7,9.5,21.3,21.3,21.3h657.6  c11.7,0,21.3-9.5,21.3-21.3V600V500V400V300V200v-100V21.2c0-11.7-9.5-21.3-21.3-21.3H21.2z M600,200v100v100v100v87.8  c0,6.8-5.5,12.2-12.2,12.2H112.2c-6.8,0-12.2-5.5-12.2-12.2V500V400V300V200v-87.8c0-6.8,5.5-12.2,12.2-12.2h475.6  c6.8,0,12.2,5.5,12.2,12.2V200z"/>
</svg>
<svg version="1.1" id="Ebene_1" x="1427" y="173" viewBox="0 0 700 700" style="enable-background:new 0 0 700 700;" xml:space="preserve" width="399" height="399" shape-rendering="auto">

<path fill="#000000" d="M500,400V300v-78.8c0-11.7-9.5-21.3-21.3-21.3H221.2c-11.7,0-21.3,9.5-21.3,21.3V300v100v78.8    c0,11.7,9.5,21.3,21.3,21.3h257.5c11.7,0,21.3-9.5,21.3-21.3V400z"/>
</svg>
<svg version="1.1" id="Ebene_1" x="173" y="1427" viewBox="0 0 700 700" style="enable-background:new 0 0 700 700;" xml:space="preserve" width="399" height="399" shape-rendering="auto">

<path fill="#000000" d="M21.2-0.1C9.5-0.1-0.1,9.5-0.1,21.2v78.8v100v100v100v100v100v78.8c0,11.7,9.5,21.3,21.3,21.3h657.6  c11.7,0,21.3-9.5,21.3-21.3V600V500V400V300V200v-100V21.2c0-11.7-9.5-21.3-21.3-21.3H21.2z M600,200v100v100v100v87.8  c0,6.8-5.5,12.2-12.2,12.2H112.2c-6.8,0-12.2-5.5-12.2-12.2V500V400V300V200v-87.8c0-6.8,5.5-12.2,12.2-12.2h475.6  c6.8,0,12.2,5.5,12.2,12.2V200z"/>
</svg>
<svg version="1.1" id="Ebene_1" x="173" y="1427" viewBox="0 0 700 700" style="enable-background:new 0 0 700 700;" xml:space="preserve" width="399" height="399" shape-rendering="auto">

<path fill="#000000" d="M500,400V300v-78.8c0-11.7-9.5-21.3-21.3-21.3H221.2c-11.7,0-21.3,9.5-21.3,21.3V300v100v78.8    c0,11.7,9.5,21.3,21.3,21.3h257.5c11.7,0,21.3-9.5,21.3-21.3V400z"/>
</svg>
<svg version="1.0" id="Layer_1" x="771" y="771" viewBox="0 0 700 700" enable-background="new 0 0 700 700" xml:space="preserve" width="456" height="456" shape-rendering="auto">
<g>
	<g>
		<polygon fill="#5f4e24" points="115.7,584.3 115.7,414.3 87.5,414.3 87.5,584.3 87.5,612.5 115.7,612.5 285.7,612.5 285.7,584.3       "/>
		<polygon fill="#5f4e24" points="115.7,115.7 285.7,115.7 285.7,87.5 115.7,87.5 87.5,87.5 87.5,115.7 87.5,285.7 115.7,285.7       "/>
		<polygon fill="#5f4e24" points="584.3,115.7 584.3,285.7 612.5,285.7 612.5,115.7 612.5,87.5 584.3,87.5 414.3,87.5 414.3,115.7       "/>
		<polygon fill="#5f4e24" points="584.3,584.3 414.3,584.3 414.3,612.5 584.3,612.5 612.5,612.5 612.5,584.3 612.5,414.3     584.3,414.3   "/>
		<g>
			<path fill="#5f4e24" d="M246.1,274c0-3.3-1.2-6-3.6-8.1c-2.4-2-6.5-3.9-12.5-5.7c-10.4-3-18.2-6.5-23.5-10.6     c-5.3-4.1-7.9-9.7-7.9-16.8s3-13,9.1-17.5c6.1-4.5,13.8-6.8,23.3-6.8c9.6,0,17.3,2.5,23.4,7.6c6,5.1,8.9,11.3,8.7,18.8l-0.1,0.4     h-16.9c0-4-1.3-7.3-4-9.8c-2.7-2.5-6.5-3.7-11.3-3.7c-4.7,0-8.3,1-10.8,3.1s-3.8,4.7-3.8,7.9c0,2.9,1.4,5.4,4.1,7.3     c2.7,1.9,7.4,3.9,14.1,6c9.6,2.7,16.9,6.2,21.8,10.6c4.9,4.4,7.4,10.1,7.4,17.3c0,7.4-2.9,13.3-8.8,17.6     c-5.9,4.3-13.6,6.5-23.3,6.5c-9.5,0-17.7-2.4-24.8-7.3c-7.1-4.9-10.5-11.7-10.3-20.5l0.1-0.4h17c0,5.2,1.6,9,4.7,11.4     c3.2,2.4,7.6,3.6,13.2,3.6c4.7,0,8.4-1,10.9-2.9C244.9,279.9,246.1,277.3,246.1,274z"/>
			<path fill="#5f4e24" d="M342.4,267.1l0.1,0.4c0.2,9.4-2.7,16.8-8.6,22.3c-5.9,5.5-14,8.2-24.5,8.2c-10.5,0-19-3.4-25.5-10.1     s-9.8-15.4-9.8-26v-17.3c0-10.6,3.2-19.2,9.6-26c6.4-6.8,14.7-10.2,24.9-10.2c10.8,0,19.2,2.8,25.2,8.3c6.1,5.5,9,13,8.8,22.6     l-0.1,0.4h-17c0-5.7-1.4-10.1-4.1-13.2c-2.7-3.1-7-4.6-12.8-4.6c-5.2,0-9.4,2.1-12.4,6.4c-3.1,4.2-4.6,9.6-4.6,16.2v17.4     c0,6.6,1.6,12.1,4.8,16.3c3.2,4.2,7.6,6.4,13.1,6.4c5.5,0,9.5-1.5,12.1-4.4c2.6-2.9,3.9-7.3,3.9-13.1H342.4z"/>
			<path fill="#5f4e24" d="M401.6,278h-30.5l-5.9,18.8h-17.6l29.9-87h17.9l29.8,87h-17.6L401.6,278z M375.4,264.3h21.9l-10.8-34.2     h-0.4L375.4,264.3z"/>
			<path fill="#5f4e24" d="M503.6,296.7h-17.4l-35.1-59.4l-0.4,0.1v59.4h-17.4v-87h17.4l35.1,59.4l0.4-0.1v-59.3h17.4V296.7z"/>
		</g>
		<g>
			<path fill="#5f4e24" d="M224.4,329.3l51.6,131.6h0.7l51.6-131.6h28v162h-21.9v-64.1l2.2-65.9l-0.6-0.1l-52.5,130.1h-14.6     l-52.3-129.8l-0.6,0.1l2.1,65.5v64.1h-21.9v-162H224.4z"/>
			<path fill="#5f4e24" d="M492.7,416.2h-74.2v57.9h85.6v17.2H396.6v-162h106.3v17.2h-84.4V399h74.2V416.2z"/>
		</g>
	</g>
</g>
</svg>
</svg>

<svg id="TextArea" x="6.7" y="337" width="267" height="75" viewBox="0 0 71.9404296875 17.588541666667" preserveAspectRatio="xMidYMid meet">
<svg version="1.1" xmlns="http://www.w3.org/2000/svg"><path class="text-color" fill="#FFFFFF" d=" M7.390625,13.19140625l-2.5888671875-6.8857421875l-0.04296875,0q0.08056640625,0.859375,0.08056640625,2.12158203125l0,4.76416015625l-0.9130859375,0l0-7.8525390625l1.4609375,0l2.42236328125,6.4345703125l0.04296875,0l2.46533203125-6.4345703125l1.4501953125,0l0,7.8525390625l-0.9775390625,0l0-4.82861328125q0-0.8056640625,0.0751953125-2.04638671875l-0.04296875,0l-2.62109375,6.875l-0.81103515625,0z M16.27978515625,13.298828125q-1.32666015625,0-2.081298828125-0.802978515625t-0.754638671875-2.210205078125q0-1.41796875,0.70361328125-2.258544921875t1.9013671875-0.840576171875q1.11181640625,0,1.7724609375,0.717041015625t0.66064453125,1.941650390625l0,0.58544921875l-4.0390625,0q0.02685546875,1.00439453125,0.51025390625,1.525390625t1.36962890625,0.52099609375q0.47265625,0,0.89697265625-0.083251953125t0.99365234375-0.324951171875l0,0.8486328125q-0.48876953125,0.20947265625-0.91845703125,0.29541015625t-1.01513671875,0.0859375z M16.0380859375,7.97607421875q-0.69287109375,0-1.095703125,0.44580078125t-0.47802734375,1.24072265625l3.00244140625,0q-0.0107421875-0.8271484375-0.38134765625-1.2568359375t-1.04736328125-0.4296875z M23.99267578125,13.19140625l0-3.7705078125q0-0.7197265625-0.319580078125-1.071533203125t-1.001708984375-0.351806640625q-0.90771484375,0-1.318603515625,0.502197265625t-0.410888671875,1.635498046875l0,3.05615234375l-0.966796875,0l0-5.8974609375l0.77880859375,0l0.14501953125,0.8056640625l0.0537109375,0q0.27392578125-0.43505859375,0.76806640625-0.674072265625t1.09033203125-0.239013671875q1.0849609375,0,1.611328125,0.5263671875t0.5263671875,1.63818359375l0,3.84033203125l-0.9560546875,0z M27.68798828125,7.2939453125l0,3.79736328125q0,0.71435546875,0.319580078125,1.060791015625t0.990966796875,0.346435546875q0.90771484375,0,1.3212890625-0.5048828125t0.41357421875-1.62744140625l0-3.072265625l0.97216796875,0l0,5.8974609375l-0.794921875,0l-0.1396484375-0.77880859375l-0.04833984375,0q-0.26318359375,0.42431640625-0.74658203125,0.6552734375t-1.12255859375,0.23095703125q-1.0634765625,0-1.603271484375-0.51025390625t-0.539794921875-1.6328125l0-3.86181640625l0.9775390625,0z  M39.9287109375,6.09619140625q-1.267578125,0-1.99267578125,0.8486328125t-0.72509765625,2.3203125q0,1.52001953125,0.70361328125,2.344482421875t2.00341796875,0.824462890625q0.837890625,0,1.88525390625-0.3115234375l0,0.859375q-0.49951171875,0.1826171875-0.96142578125,0.249755859375t-1.0634765625,0.067138671875q-1.73486328125,0-2.672119140625-1.055419921875t-0.937255859375-2.989013671875q0-1.2138671875,0.448486328125-2.126953125t1.30517578125-1.4072265625t2.016845703125-0.494140625q1.24609375,0,2.169921875,0.4619140625l-0.3974609375,0.837890625q-0.93994140625-0.4296875-1.783203125-0.4296875z M48.50634765625,10.23193359375q0,1.44482421875-0.73046875,2.255859375t-2.01953125,0.81103515625q-0.80029296875,0-1.41796875-0.373291015625t-0.95068359375-1.071533203125t-0.3330078125-1.6220703125q0-1.439453125,0.7197265625-2.242431640625t2.01953125-0.802978515625q1.24609375,0,1.979248046875,0.819091796875t0.733154296875,2.226318359375z M44.0537109375,10.23193359375q0,1.11181640625,0.437744140625,1.689208984375t1.291748046875,0.577392578125q0.84326171875,0,1.28369140625-0.577392578125t0.4404296875-1.689208984375t-0.443115234375-1.673095703125t-1.297119140625-0.561279296875q-1.71337890625,0-1.71337890625,2.234375z M52.7548828125,8.0458984375l-1.48779296875,0l0,5.1455078125l-0.966796875,0l0-5.1455078125l-1.03125,0l0-0.451171875l1.03125-0.3330078125l0-0.33837890625q0-1.07421875,0.469970703125-1.611328125t1.447509765625-0.537109375q0.56396484375,0,1.14404296875,0.19873046875l-0.2578125,0.75732421875q-0.49951171875-0.1611328125-0.87548828125-0.1611328125q-0.48876953125,0-0.72509765625,0.322265625t-0.236328125,1.0205078125l0,0.38134765625l1.48779296875,0l0,0.751953125z M56.54150390625,8.0458984375l-1.48779296875,0l0,5.1455078125l-0.966796875,0l0-5.1455078125l-1.03125,0l0-0.451171875l1.03125-0.3330078125l0-0.33837890625q0-1.07421875,0.469970703125-1.611328125t1.447509765625-0.537109375q0.56396484375,0,1.14404296875,0.19873046875l-0.2578125,0.75732421875q-0.49951171875-0.1611328125-0.87548828125-0.1611328125q-0.48876953125,0-0.72509765625,0.322265625t-0.236328125,1.0205078125l0,0.38134765625l1.48779296875,0l0,0.751953125z M60.11865234375,13.298828125q-1.32666015625,0-2.081298828125-0.802978515625t-0.754638671875-2.210205078125q0-1.41796875,0.70361328125-2.258544921875t1.9013671875-0.840576171875q1.11181640625,0,1.7724609375,0.717041015625t0.66064453125,1.941650390625l0,0.58544921875l-4.0390625,0q0.02685546875,1.00439453125,0.51025390625,1.525390625t1.36962890625,0.52099609375q0.47265625,0,0.89697265625-0.083251953125t0.99365234375-0.324951171875l0,0.8486328125q-0.48876953125,0.20947265625-0.91845703125,0.29541015625t-1.01513671875,0.0859375z M59.876953125,7.97607421875q-0.69287109375,0-1.095703125,0.44580078125t-0.47802734375,1.24072265625l3.00244140625,0q-0.0107421875-0.8271484375-0.38134765625-1.2568359375t-1.04736328125-0.4296875z M66.322265625,13.298828125q-1.32666015625,0-2.081298828125-0.802978515625t-0.754638671875-2.210205078125q0-1.41796875,0.70361328125-2.258544921875t1.9013671875-0.840576171875q1.11181640625,0,1.7724609375,0.717041015625t0.66064453125,1.941650390625l0,0.58544921875l-4.0390625,0q0.02685546875,1.00439453125,0.51025390625,1.525390625t1.36962890625,0.52099609375q0.47265625,0,0.89697265625-0.083251953125t0.99365234375-0.324951171875l0,0.8486328125q-0.48876953125,0.20947265625-0.91845703125,0.29541015625t-1.01513671875,0.0859375z M66.08056640625,7.97607421875q-0.69287109375,0-1.095703125,0.44580078125t-0.47802734375,1.24072265625l3.00244140625,0q-0.0107421875-0.8271484375-0.38134765625-1.2568359375t-1.04736328125-0.4296875z "/></svg>
</svg>

<path id="Outline" class="outline" d="M2,405.9H0v-336h2V405.9z M279.1,405.9h2v-336h-2V405.9z"/>
</svg>
